# xmcd
#
# Track frame offsets:
#	150
#	26652
#	48317
#	64005
#	84977
#	104900
#	129155
#	149227
#	175917
#	198460
#	231630
#
# Disc length: 3398 seconds
#
# Revision: 1
# Processed by: cddbd v1.5.1PL0 Copyright (c) Steve Scherf et al.
# Submitted via: CDex 1.50Beta5
#
DISCID=a40d440b
DTITLE=BLESS - 私たちの望むものは
DYEAR=1900
DGENRE=
TTITLE0=陽はまたのぼりくりかえす
TTITLE1=そして僕は途方に暮れる
TTITLE2=朝まで待てない
TTITLE3=恋はご多忙申し上げます
TTITLE4=ラスト・ステップ
TTITLE5=春のからっ風
TTITLE6=傘がない
TTITLE7=翳りゆく部屋
TTITLE8=はいからはくち
TTITLE9=私たちの望むものは
TTITLE10=そして僕は途方に暮れる(URU-Respect YO remix)
EXTD=
EXTT0=
EXTT1=
EXTT2=
EXTT3=
EXTT4=
EXTT5=
EXTT6=
EXTT7=
EXTT8=
EXTT9=
EXTT10=
PLAYORDER=
